ffmpeg started on 2016-11-27 at 12:57:07
Report written to "Output/NVENCh264/results/ffmpeg/old_town_cross_2160p50llhq11000k.log"
Command line:
Tools/ffmpeg/ffmpeg -benchmark -y -i Input/y4m/old_town_cross_2160p50.y4m -c:v h264_nvenc -preset llhq -b:v 11000k -an Output/NVENCh264/encoded/old_town_cross_2160p50llhq11000k.mkv
ffmpeg version N-82227-gdb23fde Copyright (c) 2000-2016 the FFmpeg developers
  built with gcc 5.4.0 (Ubuntu 5.4.0-6ubuntu1~16.04.2) 20160609
  configuration: --prefix=/home/jaroslav/ffmpeg_build --pkg-config-flags=--static --extra-cflags=-I/home/jaroslav/ffmpeg_build/include --extra-ldflags=-L/home/jaroslav/ffmpeg_build/lib --bindir=/home/jaroslav/bin --enable-gpl --enable-libass --enable-libfdk-aac --enable-libfreetype --enable-libmp3lame --enable-libopus --enable-libtheora --enable-libvorbis --enable-libvpx --enable-libx264 --enable-libx265 --enable-nvenc --enable-libmfx --enable-libxvid --enable-libgsm --enable-libopencore-amrnb --enable-version3 --enable-nonfree
  libavutil      55. 35.100 / 55. 35.100
  libavcodec     57. 66.101 / 57. 66.101
  libavformat    57. 57.100 / 57. 57.100
  libavdevice    57.  2.100 / 57.  2.100
  libavfilter     6. 66.100 /  6. 66.100
  libswscale      4.  3.100 /  4.  3.100
  libswresample   2.  4.100 /  2.  4.100
  libpostproc    54.  2.100 / 54.  2.100
Input #0, yuv4mpegpipe, from 'Input/y4m/old_town_cross_2160p50.y4m':
  Duration: 00:00:10.00, start: 0.000000, bitrate: 4976642 kb/s
    Stream #0:0: Video: rawvideo (I420 / 0x30323449), yuv420p(progressive), 3840x2160, SAR 1:1 DAR 16:9, 50 fps, 50 tbr, 50 tbn, 50 tbc
[h264_nvenc @ 0x45d9120] The variable bitrate rate-control requires the 'qmin' and/or 'qmax' option set.
Output #0, matroska, to 'Output/NVENCh264/encoded/old_town_cross_2160p50llhq11000k.mkv':
  Metadata:
    encoder         : Lavf57.57.100
    Stream #0:0: Video: h264 (h264_nvenc) (Main) (H264 / 0x34363248), yuv420p, 3840x2160 [SAR 1:1 DAR 16:9], q=-1--1, 11000 kb/s, 50 fps, 1k tbn, 50 tbc
    Metadata:
      encoder         : Lavc57.66.101 h264_nvenc
    Side data:
      cpb: bitrate max/min/avg: 0/0/11000000 buffer size: 22000000 vbv_delay: -1
Stream mapping:
  Stream #0:0 -> #0:0 (rawvideo (native) -> h264 (h264_nvenc))
Press [q] to stop, [?] for help
frame=   19 fps=0.0 q=0.0 size=       0kB time=00:00:00.00 bitrate=N/A speed=   0x    frame=   29 fps= 28 q=0.0 size=       0kB time=00:00:00.00 bitrate=N/A speed=   0x    frame=   47 fps= 30 q=34.0 size=       1kB time=00:00:00.32 bitrate=  18.6kbits/s speed=0.208x    frame=   52 fps= 25 q=33.0 size=       1kB time=00:00:00.42 bitrate=  14.2kbits/s speed=0.206x    frame=   70 fps= 27 q=33.0 size=       1kB time=00:00:00.78 bitrate=   7.7kbits/s speed=0.305x    frame=   74 fps= 24 q=33.0 size=       1kB time=00:00:00.86 bitrate=   7.0kbits/s speed=0.277x    frame=   85 fps= 23 q=33.0 size=       1kB time=00:00:01.08 bitrate=   5.5kbits/s speed=0.298x    frame=  103 fps= 25 q=31.0 size=       1kB time=00:00:01.44 bitrate=   4.2kbits/s speed=0.347x    frame=  121 fps= 26 q=31.0 size=       1kB time=00:00:01.80 bitrate=   3.3kbits/s speed=0.386x    frame=  139 fps= 27 q=31.0 size=       1kB time=00:00:02.16 bitrate=   2.8kbits/s speed=0.418x    frame=  157 fps= 28 q=33.0 size=       1kB time=00:00:02.52 bitrate=   2.4kbits/s speed=0.443x    frame=  175 fps= 28 q=31.0 size=       1kB time=00:00:02.88 bitrate=   2.1kbits/s speed=0.465x    frame=  193 fps= 29 q=33.0 size=       1kB time=00:00:03.24 bitrate=   1.8kbits/s speed=0.483x    frame=  211 fps= 29 q=33.0 size=       1kB time=00:00:03.60 bitrate=   1.7kbits/s speed=0.498x    frame=  229 fps= 30 q=33.0 size=    5125kB time=00:00:03.96 bitrate=10599.1kbits/s speed=0.511x    frame=  247 fps= 30 q=33.0 size=    5125kB time=00:00:04.32 bitrate=9716.0kbits/s speed=0.523x    frame=  265 fps= 30 q=34.0 size=    5125kB time=00:00:04.68 bitrate=8968.8kbits/s speed=0.533x    frame=  283 fps= 30 q=35.0 size=    6607kB time=00:00:05.04 bitrate=10737.0kbits/s speed=0.542x    frame=  301 fps= 31 q=35.0 size=    6607kB time=00:00:05.40 bitrate=10021.3kbits/s speed=0.551x    frame=  312 fps= 30 q=33.0 size=    6607kB time=00:00:05.62 bitrate=9629.1kbits/s speed=0.54x    frame=  330 fps= 30 q=35.0 size=    6607kB time=00:00:05.98 bitrate=9049.5kbits/s speed=0.547x    frame=  348 fps= 30 q=34.0 size=    6607kB time=00:00:06.34 bitrate=8535.7kbits/s speed=0.554x    frame=  365 fps= 30 q=34.0 size=    6607kB time=00:00:06.68 bitrate=8101.4kbits/s speed=0.547x    frame=  383 fps= 30 q=33.0 size=    6607kB time=00:00:07.04 bitrate=7687.1kbits/s speed=0.553x    frame=  401 fps= 30 q=33.0 size=    6607kB time=00:00:07.40 bitrate=7313.2kbits/s speed=0.559x    frame=  419 fps= 30 q=33.0 size=    6607kB time=00:00:07.76 bitrate=6974.0kbits/s speed=0.565x    frame=  437 fps= 31 q=34.0 size=    6607kB time=00:00:08.12 bitrate=6664.8kbits/s speed=0.57x    frame=  455 fps= 31 q=34.0 size=    6607kB time=00:00:08.48 bitrate=6381.9kbits/s speed=0.574x    frame=  473 fps= 31 q=31.0 size=    6607kB time=00:00:08.84 bitrate=6122.1kbits/s speed=0.579x    frame=  490 fps= 31 q=34.0 size=   11769kB time=00:00:09.18 bitrate=10501.3kbits/s speed=0.582x    frame=  500 fps= 31 q=33.0 Lsize=   13185kB time=00:00:09.98 bitrate=10821.6kbits/s speed=0.62x    
video:13180kB audio:0kB subtitle:0kB other streams:0kB global headers:0kB muxing overhead: 0.034638%
bench: utime=1.176s
bench: maxrss=1408756kB
